<svg width="91" height="91" viewBox="0 0 91 91" fill="none" xmlns="http://www.w3.org/2000/svg">
<path d="M32.9479 68.066C32.9479 68.3717 32.5963 68.6164 32.1529 68.6164C31.6483 68.6622 31.2967 68.4176 31.2967 68.066C31.2967 67.7602 31.6483 67.5156 32.0917 67.5156C32.5504 67.4697 32.9479 67.7143 32.9479 68.066ZM28.193 67.378C28.086 67.6837 28.3918 68.0354 28.8505 68.1271C29.248 68.28 29.7066 68.1271 29.7984 67.8213C29.8901 67.5156 29.5996 67.1639 29.141 67.0263C28.7434 66.9193 28.3001 67.0722 28.193 67.378ZM34.9508 67.1181C34.5074 67.2251 34.2016 67.5156 34.2475 67.8672C34.2933 68.173 34.6909 68.3718 35.1495 68.2647C35.5929 68.1577 35.8987 67.8672 35.8528 67.5614C35.807 67.2709 35.3941 67.0722 34.9508 67.1181ZM45.0109 8.53069C23.8051 8.53069 7.5835 24.63 7.5835 45.8358C7.5835 62.7913 18.2552 77.3005 33.4983 82.407C35.4553 82.7587 36.1433 81.5508 36.1433 80.5571C36.1433 79.6091 36.0974 74.3803 36.0974 71.1696C36.0974 71.1696 25.3952 73.463 23.1477 66.6135C23.1477 66.6135 21.4047 62.1644 18.8973 61.0177C18.8973 61.0177 15.3962 58.6174 19.142 58.6632C19.142 58.6632 22.9489 58.969 25.0435 62.6078C28.3918 68.5094 34.0029 66.8123 36.1892 65.8032C36.5408 63.357 37.5346 61.6599 38.6354 60.6508C30.0889 59.7029 21.4659 58.4645 21.4659 43.7565C21.4659 39.552 22.6279 37.4421 25.0741 34.7513C24.6766 33.7575 23.377 29.6601 25.4716 24.3701C28.667 23.3763 36.021 28.4981 36.021 28.4981C39.0788 27.6419 42.3659 27.1985 45.6225 27.1985C48.879 27.1985 52.1662 27.6419 55.224 28.4981C55.224 28.4981 62.578 23.361 65.7734 24.3701C67.8679 29.6753 66.5684 33.7575 66.1709 34.7513C68.6171 37.4574 70.1154 39.5673 70.1154 43.7565C70.1154 58.5104 61.1102 59.6876 52.5637 60.6508C53.9703 61.8586 55.1628 64.152 55.1628 67.7449C55.1628 72.8973 55.1169 79.2728 55.1169 80.5265C55.1169 81.5203 55.8202 82.7281 57.7619 82.3765C73.0509 77.3005 83.4168 62.7913 83.4168 45.8358C83.4168 24.63 66.2167 8.53069 45.0109 8.53069ZM22.4444 61.2624C22.2456 61.4153 22.2915 61.7669 22.5514 62.0574C22.796 62.302 23.1477 62.409 23.3464 62.2103C23.5452 62.0574 23.4993 61.7058 23.2394 61.4153C22.9948 61.1706 22.6431 61.0636 22.4444 61.2624ZM20.7932 60.024C20.6862 60.2227 20.839 60.4673 21.1448 60.6202C21.3894 60.7731 21.6952 60.7273 21.8022 60.5132C21.9093 60.3145 21.7564 60.0698 21.4506 59.9169C21.1448 59.8252 20.9002 59.8711 20.7932 60.024ZM25.7468 65.4668C25.5022 65.6656 25.5939 66.1243 25.9456 66.4148C26.2972 66.7664 26.7406 66.8123 26.9393 66.5676C27.1381 66.3689 27.0464 65.9102 26.7406 65.6197C26.4042 65.2681 25.9456 65.2222 25.7468 65.4668ZM24.0039 63.2194C23.7592 63.3723 23.7592 63.7698 24.0039 64.1214C24.2485 64.4731 24.6613 64.6259 24.86 64.4731C25.1047 64.2743 25.1047 63.8768 24.86 63.5251C24.646 63.1735 24.2485 63.0206 24.0039 63.2194Z" fill="#222222"/>
</svg>
